<svg xmlns="http://www.w3.org/2000/svg" xmlns:xlink="http://www.w3.org/1999/xlink" width="500" zoomAndPan="magnify" viewBox="0 0 375 374.999991" height="500" preserveAspectRatio="xMidYMid meet" version="1.0"><defs><filter x="0%" y="0%" width="100%" height="100%" id="31045ae947"><feColorMatrix values="0 0 0 0 1 0 0 0 0 1 0 0 0 0 1 0 0 0 1 0" color-interpolation-filters="sRGB"/></filter><mask id="9ec71bbd7b"><g filter="url(#31045ae947)"><rect x="-37.5" width="450" fill="#000000" y="-37.499999" height="449.999989" fill-opacity="0.8"/></g></mask><clipPath id="35427db582"><path d="M 0.285156 0.824219 L 175.71875 0.824219 L 175.71875 206.679688 L 0.285156 206.679688 Z M 0.285156 0.824219 " clip-rule="nonzero"/></clipPath><clipPath id="4d4254c2e0"><rect x="0" width="176" y="0" height="207"/></clipPath><clipPath id="f3490acdd5"><path d="M 127.398438 131.824219 L 303 131.824219 L 303 338 L 127.398438 338 Z M 127.398438 131.824219 " clip-rule="nonzero"/></clipPath><clipPath id="0ea969360b"><path d="M 117 62 L 163 62 L 163 129 L 117 129 Z M 117 62 " clip-rule="nonzero"/></clipPath><clipPath id="8a1a3b7b50"><path d="M 51.230469 105.269531 L 118.898438 37.601562 L 183.492188 102.195312 L 115.824219 169.863281 Z M 51.230469 105.269531 " clip-rule="nonzero"/></clipPath><clipPath id="89cd52d6f3"><path d="M 51.230469 105.269531 L 118.898438 37.601562 L 183.492188 102.195312 L 115.824219 169.863281 Z M 51.230469 105.269531 " clip-rule="nonzero"/></clipPath><clipPath id="2eafd84826"><path d="M 51.230469 105.269531 L 118.898438 37.601562 L 183.492188 102.195312 L 115.824219 169.863281 Z M 51.230469 105.269531 " clip-rule="nonzero"/></clipPath><clipPath id="a5281020c8"><path d="M 51 83 L 134 83 L 134 145 L 51 145 Z M 51 83 " clip-rule="nonzero"/></clipPath><clipPath id="08052c10f6"><path d="M 51.230469 105.269531 L 118.898438 37.601562 L 183.492188 102.195312 L 115.824219 169.863281 Z M 51.230469 105.269531 " clip-rule="nonzero"/></clipPath><clipPath id="dbb7029203"><path d="M 51.230469 105.269531 L 118.898438 37.601562 L 183.492188 102.195312 L 115.824219 169.863281 Z M 51.230469 105.269531 " clip-rule="nonzero"/></clipPath><clipPath id="cae2fe7c33"><path d="M 51.230469 105.269531 L 118.898438 37.601562 L 183.492188 102.195312 L 115.824219 169.863281 Z M 51.230469 105.269531 " clip-rule="nonzero"/></clipPath><clipPath id="c2b30a81ff"><path d="M 169 278.613281 L 175 278.613281 L 175 284 L 169 284 Z M 169 278.613281 " clip-rule="nonzero"/></clipPath><clipPath id="01401a5169"><path d="M 167 313 L 172 313 L 172 317.765625 L 167 317.765625 Z M 167 313 " clip-rule="nonzero"/></clipPath><clipPath id="41b3ae5ec9"><path d="M 188 315 L 193 315 L 193 317.765625 L 188 317.765625 Z M 188 315 " clip-rule="nonzero"/></clipPath><clipPath id="d0f1615bab"><path d="M 191 295 L 198.042969 295 L 198.042969 302 L 191 302 Z M 191 295 " clip-rule="nonzero"/></clipPath><clipPath id="9229748310"><path d="M 143.667969 308 L 149 308 L 149 313 L 143.667969 313 Z M 143.667969 308 " clip-rule="nonzero"/></clipPath><clipPath id="64651c6847"><path d="M 256 154 L 260 154 L 260 158 L 256 158 Z M 256 154 " clip-rule="nonzero"/></clipPath><clipPath id="d4e7929c0f"><path d="M 260.652344 170.402344 L 233.398438 156.824219 L 243.097656 137.355469 L 270.351562 150.9375 Z M 260.652344 170.402344 " clip-rule="nonzero"/></clipPath><clipPath id="eb02fbb0f6"><path d="M 260.652344 170.402344 L 233.398438 156.824219 L 243.097656 137.355469 L 270.351562 150.9375 Z M 260.652344 170.402344 " clip-rule="nonzero"/></clipPath><clipPath id="f27a246f52"><path d="M 254 151 L 256 151 L 256 154 L 254 154 Z M 254 151 " clip-rule="nonzero"/></clipPath><clipPath id="63b6bfc38b"><path d="M 260.652344 170.402344 L 233.398438 156.824219 L 243.097656 137.355469 L 270.351562 150.9375 Z M 260.652344 170.402344 " clip-rule="nonzero"/></clipPath><clipPath id="45e7881539"><path d="M 260.652344 170.402344 L 233.398438 156.824219 L 243.097656 137.355469 L 270.351562 150.9375 Z M 260.652344 170.402344 " clip-rule="nonzero"/></clipPath><clipPath id="805cedee96"><path d="M 252 144 L 254 144 L 254 146 L 252 146 Z M 252 144 " clip-rule="nonzero"/></clipPath><clipPath id="0f8403fd97"><path d="M 260.652344 170.402344 L 233.398438 156.824219 L 243.097656 137.355469 L 270.351562 150.9375 Z M 260.652344 170.402344 " clip-rule="nonzero"/></clipPath><clipPath id="5cde8480a4"><path d="M 260.652344 170.402344 L 233.398438 156.824219 L 243.097656 137.355469 L 270.351562 150.9375 Z M 260.652344 170.402344 " clip-rule="nonzero"/></clipPath><clipPath id="dc298755af"><path d="M 244 147 L 247 147 L 247 149 L 244 149 Z M 244 147 " clip-rule="nonzero"/></clipPath><clipPath id="e76dfbd9b6"><path d="M 260.652344 170.402344 L 233.398438 156.824219 L 243.097656 137.355469 L 270.351562 150.9375 Z M 260.652344 170.402344 " clip-rule="nonzero"/></clipPath><clipPath id="f8a4a47079"><path d="M 260.652344 170.402344 L 233.398438 156.824219 L 243.097656 137.355469 L 270.351562 150.9375 Z M 260.652344 170.402344 " clip-rule="nonzero"/></clipPath><clipPath id="20bbee2f4f"><path d="M 246 152 L 248 152 L 248 154 L 246 154 Z M 246 152 " clip-rule="nonzero"/></clipPath><clipPath id="fb4e5c2dd6"><path d="M 260.652344 170.402344 L 233.398438 156.824219 L 243.097656 137.355469 L 270.351562 150.9375 Z M 260.652344 170.402344 " clip-rule="nonzero"/></clipPath><clipPath id="b038cc2813"><path d="M 260.652344 170.402344 L 233.398438 156.824219 L 243.097656 137.355469 L 270.351562 150.9375 Z M 260.652344 170.402344 " clip-rule="nonzero"/></clipPath><clipPath id="9f7b817d33"><path d="M 241 154 L 243 154 L 243 156 L 241 156 Z M 241 154 " clip-rule="nonzero"/></clipPath><clipPath id="c75241dac5"><path d="M 260.652344 170.402344 L 233.398438 156.824219 L 243.097656 137.355469 L 270.351562 150.9375 Z M 260.652344 170.402344 " clip-rule="nonzero"/></clipPath><clipPath id="67ddd6c4e0"><path d="M 260.652344 170.402344 L 233.398438 156.824219 L 243.097656 137.355469 L 270.351562 150.9375 Z M 260.652344 170.402344 " clip-rule="nonzero"/></clipPath><clipPath id="3c312c8f85"><path d="M 245 160 L 249 160 L 249 164 L 245 164 Z M 245 160 " clip-rule="nonzero"/></clipPath><clipPath id="23603c31cc"><path d="M 260.652344 170.402344 L 233.398438 156.824219 L 243.097656 137.355469 L 270.351562 150.9375 Z M 260.652344 170.402344 " clip-rule="nonzero"/></clipPath><clipPath id="a961dbe6f0"><path d="M 260.652344 170.402344 L 233.398438 156.824219 L 243.097656 137.355469 L 270.351562 150.9375 Z M 260.652344 170.402344 " clip-rule="nonzero"/></clipPath><clipPath id="29691e1121"><path d="M 256 144 L 259 144 L 259 147 L 256 147 Z M 256 144 " clip-rule="nonzero"/></clipPath><clipPath id="52660763f4"><path d="M 260.652344 170.402344 L 233.398438 156.824219 L 243.097656 137.355469 L 270.351562 150.9375 Z M 260.652344 170.402344 " clip-rule="nonzero"/></clipPath><clipPath id="c4655cd3b6"><path d="M 260.652344 170.402344 L 233.398438 156.824219 L 243.097656 137.355469 L 270.351562 150.9375 Z M 260.652344 170.402344 " clip-rule="nonzero"/></clipPath><clipPath id="5759cdefdc"><path d="M 245 138 L 248 138 L 248 141 L 245 141 Z M 245 138 " clip-rule="nonzero"/></clipPath><clipPath id="8433b2c1dd"><path d="M 260.652344 170.402344 L 233.398438 156.824219 L 243.097656 137.355469 L 270.351562 150.9375 Z M 260.652344 170.402344 " clip-rule="nonzero"/></clipPath><clipPath id="da21831ff6"><path d="M 260.652344 170.402344 L 233.398438 156.824219 L 243.097656 137.355469 L 270.351562 150.9375 Z M 260.652344 170.402344 " clip-rule="nonzero"/></clipPath><clipPath id="ee71339fdc"><path d="M 248 146 L 250 146 L 250 148 L 248 148 Z M 248 146 " clip-rule="nonzero"/></clipPath><clipPath id="220835813e"><path d="M 260.652344 170.402344 L 233.398438 156.824219 L 243.097656 137.355469 L 270.351562 150.9375 Z M 260.652344 170.402344 " clip-rule="nonzero"/></clipPath><clipPath id="964292b332"><path d="M 260.652344 170.402344 L 233.398438 156.824219 L 243.097656 137.355469 L 270.351562 150.9375 Z M 260.652344 170.402344 " clip-rule="nonzero"/></clipPath><clipPath id="424fa8e75c"><path d="M 237 146 L 242 146 L 242 150 L 237 150 Z M 237 146 " clip-rule="nonzero"/></clipPath><clipPath id="0e8798ef24"><path d="M 260.652344 170.402344 L 233.398438 156.824219 L 243.097656 137.355469 L 270.351562 150.9375 Z M 260.652344 170.402344 " clip-rule="nonzero"/></clipPath><clipPath id="300e090fe6"><path d="M 260.652344 170.402344 L 233.398438 156.824219 L 243.097656 137.355469 L 270.351562 150.9375 Z M 260.652344 170.402344 " clip-rule="nonzero"/></clipPath><clipPath id="74fd476455"><path d="M 266 152 L 269 152 L 269 155 L 266 155 Z M 266 152 " clip-rule="nonzero"/></clipPath><clipPath id="49e79066ab"><path d="M 260.652344 170.402344 L 233.398438 156.824219 L 243.097656 137.355469 L 270.351562 150.9375 Z M 260.652344 170.402344 " clip-rule="nonzero"/></clipPath><clipPath id="c7171b8695"><path d="M 260.652344 170.402344 L 233.398438 156.824219 L 243.097656 137.355469 L 270.351562 150.9375 Z M 260.652344 170.402344 " clip-rule="nonzero"/></clipPath><clipPath id="3a46540988"><path d="M 259 148 L 261 148 L 261 150 L 259 150 Z M 259 148 " clip-rule="nonzero"/></clipPath><clipPath id="8783c8eae5"><path d="M 260.652344 170.402344 L 233.398438 156.824219 L 243.097656 137.355469 L 270.351562 150.9375 Z M 260.652344 170.402344 " clip-rule="nonzero"/></clipPath><clipPath id="4cd0a8bebd"><path d="M 260.652344 170.402344 L 233.398438 156.824219 L 243.097656 137.355469 L 270.351562 150.9375 Z M 260.652344 170.402344 " clip-rule="nonzero"/></clipPath><clipPath id="1b774eedfc"><path d="M 254 161 L 257 161 L 257 164 L 254 164 Z M 254 161 " clip-rule="nonzero"/></clipPath><clipPath id="caa9abf29b"><path d="M 260.652344 170.402344 L 233.398438 156.824219 L 243.097656 137.355469 L 270.351562 150.9375 Z M 260.652344 170.402344 " clip-rule="nonzero"/></clipPath><clipPath id="5ec2e639c4"><path d="M 260.652344 170.402344 L 233.398438 156.824219 L 243.097656 137.355469 L 270.351562 150.9375 Z M 260.652344 170.402344 " clip-rule="nonzero"/></clipPath></defs><g mask="url(#9ec71bbd7b)"><g transform="matrix(1, 0, 0, 1, 119, 131)"><g clip-path="url(#4d4254c2e0)"><g clip-path="url(#35427db582)"><path fill="#223913" d="M 27.71875 205.699219 C 10.730469 201.839844 1.722656 195.660156 0.695312 186.910156 L 0.4375 183.304688 C 0.4375 175.070312 3.011719 165.03125 7.902344 153.1875 C 13.566406 139.546875 17.683594 123.070312 20.515625 104.28125 L 20.773438 101.191406 C 20.773438 93.726562 20.257812 87.035156 19.746094 81.113281 C 19.488281 79.570312 18.457031 76.738281 17.171875 72.363281 C 10.992188 53.058594 7.902344 38.640625 7.902344 28.859375 C 7.902344 24.484375 8.417969 20.882812 9.707031 17.535156 C 15.113281 7.496094 24.636719 2.605469 38.277344 2.605469 C 63.761719 2.605469 76.632812 10.070312 76.632812 25 C 76.589844 31.125 75.734375 37.128906 74.058594 43.019531 C 72.257812 50.484375 71.226562 56.402344 71.226562 60.78125 C 71.226562 66.1875 72.257812 69.015625 74.058594 69.015625 C 75.34375 69.015625 77.148438 67.214844 79.976562 63.867188 C 82.808594 60.523438 85.898438 55.375 88.730469 48.683594 C 91.5625 41.988281 93.105469 34.523438 93.363281 26.03125 C 93.363281 9.296875 101.601562 0.804688 117.816406 0.804688 C 125.796875 0.804688 133.519531 3.636719 141.242188 9.039062 C 148.707031 14.445312 152.824219 22.941406 153.597656 34.523438 C 153.597656 49.710938 143.558594 62.839844 123.222656 74.164062 C 121.417969 74.933594 120.648438 75.453125 120.648438 75.710938 C 120.648438 76.996094 121.675781 80.34375 123.996094 86.261719 C 129.914062 102.480469 137.636719 113.804688 146.644531 120.757812 C 156.171875 127.191406 163.121094 132.339844 167.238281 136.457031 C 172.644531 142.121094 175.476562 149.070312 175.476562 156.535156 C 175.476562 164.515625 171.871094 171.980469 164.148438 178.929688 C 156.683594 185.882812 147.417969 191.03125 136.351562 194.375 C 130.429688 196.175781 125.28125 197.207031 120.390625 197.207031 C 116.359375 197.289062 112.5 196.515625 108.808594 194.890625 C 100.3125 190.515625 95.421875 185.109375 94.390625 178.929688 C 94.085938 176.453125 93.914062 173.964844 93.878906 171.464844 C 93.910156 166.863281 94.425781 162.316406 95.421875 157.824219 C 96.808594 150.59375 97.496094 143.300781 97.480469 135.941406 C 97.226562 123.070312 93.363281 112.773438 85.898438 105.308594 L 82.554688 101.964844 L 79.722656 105.824219 C 76.890625 109.6875 75.601562 114.320312 75.601562 119.722656 C 76.375 130.019531 78.691406 139.03125 82.808594 146.753906 C 87.445312 154.988281 90.273438 165.800781 91.046875 178.929688 C 90.019531 197.203125 72.515625 206.472656 38.535156 206.472656 C 33.644531 206.472656 30.039062 206.214844 27.71875 205.699219 Z M 27.71875 205.699219 " fill-opacity="1" fill-rule="nonzero"/></g></g></g></g><g clip-path="url(#f3490acdd5)"><path fill="#6ad13f" d="M 154.832031 336.699219 C 137.84375 332.839844 128.832031 326.660156 127.804688 317.910156 L 127.546875 314.304688 C 127.546875 306.070312 130.121094 296.03125 135.011719 284.1875 C 140.675781 270.546875 144.792969 254.070312 147.625 235.28125 L 147.882812 232.191406 C 147.882812 224.726562 147.371094 218.035156 146.855469 212.113281 C 146.597656 210.570312 145.570312 207.738281 144.28125 203.363281 C 138.105469 184.058594 135.015625 169.640625 135.015625 159.859375 C 135.015625 155.484375 135.527344 151.882812 136.816406 148.535156 C 142.222656 138.496094 151.746094 133.605469 165.390625 133.605469 C 190.871094 133.605469 203.742188 141.070312 203.742188 156 C 203.703125 162.125 202.84375 168.128906 201.167969 174.019531 C 199.367188 181.484375 198.335938 187.402344 198.335938 191.78125 C 198.335938 197.1875 199.367188 200.015625 201.167969 200.015625 C 202.453125 200.015625 204.257812 198.214844 207.089844 194.867188 C 209.921875 191.523438 213.007812 186.375 215.839844 179.683594 C 218.675781 172.988281 220.21875 165.523438 220.472656 157.03125 C 220.472656 140.296875 228.710938 131.804688 244.929688 131.804688 C 252.910156 131.804688 260.628906 134.636719 268.351562 140.039062 C 275.816406 145.445312 279.933594 153.941406 280.707031 165.523438 C 280.707031 180.710938 270.667969 193.839844 250.332031 205.164062 C 248.53125 205.933594 247.757812 206.453125 247.757812 206.710938 C 247.757812 207.996094 248.785156 211.34375 251.105469 217.261719 C 257.027344 233.480469 264.746094 244.804688 273.757812 251.757812 C 283.28125 258.191406 290.230469 263.339844 294.351562 267.457031 C 299.753906 273.121094 302.585938 280.070312 302.585938 287.535156 C 302.585938 295.515625 298.984375 302.980469 291.261719 309.929688 C 283.796875 316.882812 274.53125 322.03125 263.460938 325.375 C 257.539062 327.175781 252.394531 328.207031 247.503906 328.207031 C 243.46875 328.289062 239.609375 327.515625 235.917969 325.890625 C 227.425781 321.515625 222.535156 316.109375 221.503906 309.929688 C 221.195312 307.453125 221.023438 304.964844 220.988281 302.464844 C 221.023438 297.863281 221.539062 293.316406 222.535156 288.824219 C 223.921875 281.59375 224.609375 274.300781 224.59375 266.941406 C 224.335938 254.070312 220.476562 243.773438 213.011719 236.308594 L 209.664062 232.964844 L 206.832031 236.824219 C 204 240.6875 202.714844 245.320312 202.714844 250.722656 C 203.484375 261.019531 205.804688 270.03125 209.921875 277.753906 C 214.554688 285.988281 217.386719 296.800781 218.160156 309.929688 C 217.132812 328.203125 199.625 337.472656 165.648438 337.472656 C 160.753906 337.472656 157.148438 337.214844 154.832031 336.699219 Z M 154.832031 336.699219 " fill-opacity="1" fill-rule="nonzero"/></g><g clip-path="url(#0ea969360b)"><g clip-path="url(#8a1a3b7b50)"><g clip-path="url(#89cd52d6f3)"><g clip-path="url(#2eafd84826)"><path fill="#80cc28" d="M 162.023438 100.515625 C 158.914062 77.683594 120.726562 62.59375 120.726562 62.59375 C 120.726562 62.59375 125.078125 83.007812 119.730469 95.273438 C 116.15625 103.46875 111.527344 129.683594 142.757812 128.761719 C 143.09375 128.753906 143.4375 128.734375 143.785156 128.707031 C 147.59375 116.960938 151.425781 90.78125 123.171875 65.546875 C 123.171875 65.546875 158.992188 90.644531 145.640625 128.492188 C 154.039062 127.203125 164.800781 120.910156 162.023438 100.515625 " fill-opacity="1" fill-rule="nonzero"/></g></g></g></g><g clip-path="url(#a5281020c8)"><g clip-path="url(#08052c10f6)"><g clip-path="url(#dbb7029203)"><g clip-path="url(#cae2fe7c33)"><path fill="#27963c" d="M 113.65625 106.417969 C 99.960938 100.324219 81.070312 97.402344 56.117188 104.601562 C 56.117188 104.601562 86.027344 92.050781 114.183594 103.652344 C 114.660156 101.585938 115.261719 99.796875 115.835938 98.476562 C 117.492188 94.679688 118.214844 90.109375 118.429688 85.601562 C 91.734375 75.773438 51.273438 105.246094 51.273438 105.246094 C 51.273438 105.246094 76.160156 114.257812 85.65625 128.21875 C 91.59375 136.945312 113.839844 157.246094 133.40625 131.828125 C 114.375 130.195312 112.160156 116.386719 113.65625 106.417969 " fill-opacity="1" fill-rule="nonzero"/></g></g></g></g><path fill="#27963c" d="M 160.777344 296.585938 L 160.761719 296.585938 C 160.710938 296.585938 160.660156 296.589844 160.609375 296.597656 L 159.175781 296.972656 C 158.800781 297.21875 158.582031 297.375 158.523438 297.441406 C 158.386719 297.558594 158.257812 297.683594 158.136719 297.8125 C 157.839844 298.152344 157.671875 298.367188 157.628906 298.453125 C 157.339844 298.875 157.171875 299.261719 157.125 299.605469 C 157.105469 299.726562 157.101562 299.84375 157.105469 299.964844 L 157.121094 300.140625 C 157.132812 300.246094 157.167969 300.378906 157.226562 300.539062 C 157.28125 300.6875 157.351562 300.835938 157.4375 300.984375 C 157.460938 301.058594 157.632812 301.28125 157.953125 301.648438 C 158 301.722656 158.25 301.945312 158.695312 302.316406 C 158.789062 302.378906 158.882812 302.433594 158.976562 302.480469 C 159.21875 302.585938 159.363281 302.640625 159.414062 302.648438 C 159.609375 302.703125 159.808594 302.726562 160.015625 302.726562 C 160.410156 302.726562 160.773438 302.640625 161.097656 302.472656 L 161.492188 302.257812 L 161.835938 302.003906 L 162.128906 301.707031 L 162.371094 301.371094 L 162.5625 300.996094 L 162.703125 300.578125 L 162.792969 300.125 L 162.835938 299.625 C 162.816406 299.398438 162.792969 299.1875 162.761719 298.984375 C 162.753906 298.871094 162.691406 298.601562 162.566406 298.179688 C 162.511719 298.019531 162.449219 297.875 162.382812 297.746094 C 162.15625 297.355469 161.890625 297.050781 161.585938 296.835938 C 161.484375 296.769531 161.382812 296.714844 161.277344 296.675781 L 161.113281 296.625 C 161.003906 296.601562 160.894531 296.585938 160.777344 296.585938 " fill-opacity="1" fill-rule="nonzero"/><path fill="#27963c" d="M 167.824219 301.339844 L 166.898438 301.6875 C 166.457031 301.875 166.199219 302.035156 166.136719 302.167969 C 166.050781 302.371094 166.003906 302.542969 165.996094 302.6875 C 165.992188 302.769531 165.992188 302.851562 166.003906 302.933594 C 165.996094 302.972656 166.027344 303.097656 166.089844 303.308594 C 166.148438 303.445312 166.230469 303.570312 166.34375 303.6875 C 166.398438 303.746094 166.460938 303.800781 166.527344 303.855469 L 166.636719 303.933594 C 166.714844 303.984375 166.796875 304.03125 166.886719 304.078125 C 167.253906 304.261719 167.617188 304.296875 167.976562 304.183594 C 168.035156 304.160156 168.089844 304.132812 168.140625 304.101562 L 168.21875 304.050781 C 168.269531 304.015625 168.316406 303.972656 168.363281 303.929688 C 168.453125 303.839844 168.53125 303.730469 168.601562 303.601562 C 168.75 303.335938 168.804688 303.027344 168.765625 302.683594 C 168.757812 302.5625 168.730469 302.4375 168.683594 302.308594 C 168.660156 302.242188 168.628906 302.175781 168.597656 302.109375 C 168.496094 301.921875 168.445312 301.832031 168.4375 301.832031 C 168.308594 301.65625 168.105469 301.492188 167.824219 301.339844 " fill-opacity="1" fill-rule="nonzero"/><path fill="#27963c" d="M 175.921875 311.929688 L 175.898438 311.980469 C 175.835938 312.121094 175.792969 312.210938 175.769531 312.25 C 175.566406 312.5625 175.460938 312.730469 175.453125 312.75 C 175.402344 312.859375 175.371094 312.945312 175.355469 313.003906 C 175.273438 313.316406 175.289062 313.582031 175.410156 313.796875 C 175.523438 313.972656 175.699219 314.144531 175.933594 314.3125 L 176.03125 314.371094 C 176.097656 314.40625 176.160156 314.433594 176.222656 314.449219 C 176.28125 314.46875 176.339844 314.476562 176.398438 314.476562 L 176.460938 314.472656 C 176.5 314.46875 176.539062 314.460938 176.578125 314.445312 C 176.65625 314.421875 176.730469 314.375 176.800781 314.3125 C 176.878906 314.242188 176.9375 314.171875 176.972656 314.109375 C 177.015625 314.042969 177.050781 313.976562 177.078125 313.914062 C 177.132812 313.78125 177.15625 313.648438 177.152344 313.519531 C 177.160156 313.488281 177.140625 313.386719 177.09375 313.210938 C 177.074219 313.144531 177.046875 313.078125 177.015625 313.019531 L 176.964844 312.9375 C 176.929688 312.882812 176.890625 312.835938 176.84375 312.796875 L 176.769531 312.738281 C 176.71875 312.699219 176.664062 312.671875 176.601562 312.644531 L 175.921875 311.929688 " fill-opacity="1" fill-rule="nonzero"/><path fill="#27963c" d="M 185.429688 300.957031 L 185.425781 300.976562 C 185.414062 301.046875 185.382812 301.15625 185.332031 301.3125 C 185.207031 301.625 185.109375 301.875 185.046875 302.0625 C 185.003906 302.210938 184.976562 302.3125 184.96875 302.375 C 184.953125 302.457031 184.945312 302.535156 184.945312 302.609375 C 184.945312 302.625 184.949219 302.683594 184.960938 302.777344 C 184.976562 302.851562 185 302.917969 185.03125 302.980469 L 185.082031 303.074219 L 185.152344 303.15625 C 185.199219 303.210938 185.257812 303.257812 185.324219 303.300781 C 185.390625 303.34375 185.464844 303.382812 185.550781 303.414062 C 185.695312 303.460938 185.847656 303.464844 186.003906 303.425781 C 186.09375 303.398438 186.179688 303.359375 186.261719 303.300781 C 186.304688 303.269531 186.34375 303.238281 186.382812 303.199219 L 186.453125 303.132812 C 186.578125 302.988281 186.660156 302.800781 186.695312 302.570312 C 186.707031 302.5 186.710938 302.410156 186.714844 302.296875 C 186.714844 302.238281 186.699219 302.15625 186.667969 302.050781 C 186.617188 301.867188 186.527344 301.699219 186.402344 301.542969 C 186.292969 301.40625 186.1875 301.308594 186.082031 301.25 C 185.882812 301.128906 185.667969 301.03125 185.429688 300.957031 " fill-opacity="1" fill-rule="nonzero"/><path fill="#27963c" d="M 179.578125 294.777344 L 179.4375 294.871094 C 179.15625 295.066406 179.003906 295.175781 178.976562 295.203125 C 178.945312 295.230469 178.921875 295.25 178.910156 295.265625 C 178.832031 295.367188 178.792969 295.425781 178.785156 295.441406 C 178.722656 295.550781 178.683594 295.671875 178.671875 295.800781 C 178.675781 295.882812 178.699219 295.960938 178.746094 296.035156 C 178.789062 296.097656 178.84375 296.160156 178.90625 296.21875 C 179.003906 296.292969 179.078125 296.34375 179.117188 296.367188 C 179.175781 296.402344 179.230469 296.433594 179.285156 296.460938 C 179.425781 296.515625 179.507812 296.542969 179.53125 296.542969 C 179.679688 296.566406 179.816406 296.570312 179.941406 296.554688 C 180.089844 296.535156 180.222656 296.484375 180.339844 296.40625 C 180.550781 296.261719 180.695312 296.082031 180.769531 295.871094 C 180.789062 295.816406 180.800781 295.765625 180.804688 295.710938 C 180.808594 295.640625 180.808594 295.574219 180.804688 295.515625 C 180.796875 295.394531 180.773438 295.292969 180.742188 295.214844 C 180.691406 295.121094 180.660156 295.074219 180.640625 295.066406 C 180.546875 294.988281 180.441406 294.925781 180.332031 294.878906 C 180.304688 294.863281 180.21875 294.839844 180.066406 294.808594 L 179.972656 294.796875 L 179.578125 294.777344 " fill-opacity="1" fill-rule="nonzero"/><path fill="#27963c" d="M 185.59375 288.027344 L 185.5 288.042969 C 185.289062 288.085938 185.144531 288.121094 185.070312 288.152344 C 184.941406 288.203125 184.863281 288.238281 184.839844 288.25 C 184.804688 288.273438 184.769531 288.296875 184.734375 288.328125 C 184.636719 288.410156 184.566406 288.519531 184.515625 288.648438 L 184.492188 288.71875 L 184.476562 288.828125 L 184.488281 288.933594 C 184.53125 289.140625 184.722656 289.328125 185.054688 289.488281 L 185.230469 289.570312 C 185.261719 289.582031 185.324219 289.59375 185.417969 289.609375 C 185.582031 289.625 185.753906 289.621094 185.933594 289.59375 C 186.152344 289.554688 186.324219 289.511719 186.449219 289.460938 C 186.476562 289.453125 186.527344 289.425781 186.601562 289.378906 L 186.703125 289.289062 C 186.828125 289.167969 186.910156 289.03125 186.949219 288.878906 L 186.96875 288.765625 C 186.976562 288.6875 186.972656 288.605469 186.960938 288.523438 L 186.929688 288.390625 L 185.59375 288.027344 " fill-opacity="1" fill-rule="nonzero"/><g clip-path="url(#c2b30a81ff)"><path fill="#27963c" d="M 172.03125 278.605469 L 171.800781 278.617188 C 171.132812 278.679688 170.617188 279.015625 170.246094 279.625 C 170.175781 279.746094 170.097656 279.957031 170.007812 280.257812 C 169.9375 280.632812 169.914062 280.980469 169.9375 281.300781 C 169.816406 281.464844 169.742188 281.648438 169.710938 281.851562 C 169.691406 282.015625 169.707031 282.1875 169.765625 282.359375 C 169.792969 282.445312 169.832031 282.53125 169.878906 282.617188 L 169.960938 282.75 C 170.015625 282.835938 170.085938 282.925781 170.160156 283.011719 C 170.238281 283.089844 170.320312 283.15625 170.40625 283.210938 L 170.535156 283.289062 C 170.621094 283.339844 170.714844 283.375 170.808594 283.40625 C 170.988281 283.464844 171.199219 283.484375 171.4375 283.46875 C 171.9375 283.40625 172.390625 283.308594 172.789062 283.175781 C 173.140625 283.054688 173.449219 282.910156 173.714844 282.734375 C 174.308594 282.332031 174.632812 281.894531 174.6875 281.414062 C 174.71875 281.078125 174.679688 280.75 174.574219 280.433594 C 174.519531 280.273438 174.449219 280.117188 174.359375 279.964844 C 174.273438 279.8125 174.167969 279.660156 174.042969 279.511719 L 173.84375 279.289062 C 173.382812 278.839844 172.777344 278.613281 172.03125 278.605469 " fill-opacity="1" fill-rule="nonzero"/></g><g clip-path="url(#01401a5169)"><path fill="#27963c" d="M 169.082031 313.753906 L 168.707031 313.851562 C 167.996094 314.054688 167.507812 314.335938 167.242188 314.699219 L 167.128906 314.886719 L 167.050781 315.085938 L 167.039062 315.417969 C 167.042969 315.628906 167.066406 315.828125 167.117188 316.007812 L 167.207031 316.265625 L 167.332031 316.496094 L 167.492188 316.703125 L 167.683594 316.886719 L 167.910156 317.046875 L 168.171875 317.179688 C 168.296875 317.242188 168.496094 317.28125 168.777344 317.289062 C 169.109375 317.277344 169.414062 317.234375 169.695312 317.148438 C 169.769531 317.128906 169.847656 317.101562 169.921875 317.066406 C 170 317.03125 170.082031 316.988281 170.164062 316.9375 L 170.289062 316.855469 C 170.453125 316.742188 170.628906 316.59375 170.8125 316.417969 L 170.945312 316.242188 L 171.046875 316.054688 L 171.105469 315.847656 L 171.128906 315.628906 L 171.113281 315.390625 C 171.066406 315.066406 170.917969 314.703125 170.671875 314.296875 L 169.082031 313.753906 " fill-opacity="1" fill-rule="nonzero"/></g><g clip-path="url(#41b3ae5ec9)"><path fill="#27963c" d="M 191.824219 315.214844 L 191.34375 315.246094 C 191.050781 315.273438 190.78125 315.3125 190.539062 315.363281 L 190.195312 315.453125 L 189.890625 315.5625 L 189.621094 315.6875 L 189.394531 315.835938 L 189.207031 316.003906 L 189.054688 316.191406 L 188.945312 316.398438 C 188.882812 316.601562 188.863281 316.789062 188.890625 316.972656 C 188.902344 317.0625 188.925781 317.148438 188.957031 317.234375 C 188.992188 317.320312 189.035156 317.402344 189.089844 317.484375 L 189.179688 317.601562 C 189.242188 317.664062 189.304688 317.722656 189.375 317.773438 L 189.488281 317.839844 C 189.5625 317.882812 189.644531 317.917969 189.730469 317.949219 C 189.875 318.003906 190.097656 318.03125 190.394531 318.03125 L 190.691406 317.996094 L 190.96875 317.941406 L 191.21875 317.867188 L 191.441406 317.773438 L 191.644531 317.660156 L 191.820312 317.527344 L 191.96875 317.378906 L 192.09375 317.207031 L 192.242188 316.933594 C 192.296875 316.816406 192.328125 316.683594 192.339844 316.535156 C 192.359375 316.417969 192.339844 316.222656 192.289062 315.945312 C 192.222656 315.6875 192.066406 315.441406 191.824219 315.214844 " fill-opacity="1" fill-rule="nonzero"/></g><path fill="#27963c" d="M 180.785156 305.257812 L 179.8125 305.71875 C 179.707031 305.804688 179.628906 305.882812 179.585938 305.949219 C 179.539062 306.03125 179.503906 306.128906 179.484375 306.238281 C 179.464844 306.378906 179.460938 306.464844 179.480469 306.496094 C 179.488281 306.535156 179.5 306.585938 179.519531 306.644531 C 179.542969 306.695312 179.570312 306.742188 179.597656 306.789062 C 179.65625 306.875 179.730469 306.953125 179.8125 307.015625 C 179.855469 307.046875 179.898438 307.078125 179.945312 307.101562 C 179.988281 307.128906 180.046875 307.152344 180.113281 307.167969 C 180.320312 307.214844 180.523438 307.1875 180.722656 307.082031 C 180.890625 306.996094 181.03125 306.871094 181.140625 306.703125 C 181.246094 306.539062 181.300781 306.34375 181.3125 306.117188 C 181.324219 305.886719 181.273438 305.683594 181.164062 305.5 C 181.136719 305.453125 181.105469 305.410156 181.070312 305.367188 L 180.785156 305.257812 " fill-opacity="1" fill-rule="nonzero"/><g clip-path="url(#d0f1615bab)"><path fill="#27963c" d="M 194.671875 295.15625 L 194.410156 295.238281 C 193.898438 295.40625 193.464844 295.632812 193.101562 295.914062 C 192.699219 296.257812 192.449219 296.542969 192.347656 296.773438 C 191.9375 297.613281 191.839844 298.40625 192.058594 299.15625 C 192.335938 299.984375 192.855469 300.589844 193.617188 300.964844 C 194.480469 301.355469 195.40625 301.40625 196.386719 301.125 C 197.097656 300.890625 197.660156 300.414062 198.082031 299.703125 C 198.152344 299.558594 198.214844 299.40625 198.265625 299.242188 C 198.375 298.8125 198.429688 298.546875 198.429688 298.4375 C 198.484375 297.710938 198.464844 297.1875 198.375 296.855469 C 198.3125 296.648438 198.203125 296.421875 198.046875 296.179688 C 198.019531 296.121094 197.875 295.929688 197.609375 295.597656 L 194.671875 295.15625 " fill-opacity="1" fill-rule="nonzero"/></g><g clip-path="url(#9229748310)"><path fill="#27963c" d="M 146.425781 308.738281 L 144.753906 309.390625 C 144.527344 309.566406 144.335938 309.746094 144.183594 309.925781 L 143.980469 310.191406 L 143.828125 310.460938 L 143.734375 310.734375 L 143.691406 311.007812 L 143.703125 311.285156 L 143.769531 311.5625 L 143.890625 311.839844 C 143.984375 312.011719 144.117188 312.164062 144.28125 312.296875 C 144.363281 312.367188 144.457031 312.429688 144.558594 312.488281 C 144.597656 312.523438 144.769531 312.601562 145.070312 312.722656 C 145.535156 312.867188 146.039062 312.847656 146.578125 312.667969 C 146.804688 312.566406 147.003906 312.453125 147.179688 312.320312 L 147.421875 312.117188 L 147.625 311.890625 L 147.792969 311.640625 L 147.921875 311.367188 L 148.011719 311.074219 C 148.0625 310.871094 148.085938 310.652344 148.082031 310.421875 L 148.054688 310.132812 L 147.988281 309.871094 L 147.882812 309.636719 L 147.734375 309.425781 L 147.550781 309.238281 C 147.28125 309.003906 146.90625 308.835938 146.425781 308.738281 " fill-opacity="1" fill-rule="nonzero"/></g><path fill="#27963c" d="M 160.816406 310.882812 L 160.714844 310.9375 C 160.34375 311.121094 160.085938 311.425781 159.941406 311.84375 C 159.84375 312.183594 159.894531 312.527344 160.082031 312.871094 L 160.183594 313.015625 C 160.261719 313.109375 160.351562 313.195312 160.457031 313.269531 C 160.5625 313.347656 160.679688 313.414062 160.8125 313.472656 C 161.019531 313.546875 161.257812 313.585938 161.527344 313.597656 C 161.726562 313.585938 161.839844 313.574219 161.871094 313.554688 C 161.945312 313.539062 162.011719 313.515625 162.078125 313.484375 C 162.210938 313.421875 162.328125 313.339844 162.433594 313.230469 L 162.542969 313.066406 L 162.625 312.894531 L 162.675781 312.714844 L 162.691406 312.535156 L 162.679688 312.34375 L 162.636719 312.148438 L 162.5625 311.945312 C 162.5 311.808594 162.417969 311.667969 162.316406 311.523438 L 160.816406 310.882812 " fill-opacity="1" fill-rule="nonzero"/><path fill="#27963c" d="M 158.753906 285.171875 L 158.484375 285.335938 C 158.140625 285.558594 157.871094 285.792969 157.667969 286.039062 L 157.53125 286.226562 C 157.449219 286.355469 157.382812 286.484375 157.335938 286.617188 L 157.277344 286.816406 C 157.257812 286.96875 157.257812 287.113281 157.273438 287.25 L 157.308594 287.449219 C 157.34375 287.574219 157.394531 287.695312 157.460938 287.804688 L 157.578125 287.960938 C 157.664062 288.0625 157.765625 288.15625 157.886719 288.238281 C 158.050781 288.359375 158.285156 288.453125 158.59375 288.515625 C 159.117188 288.613281 159.605469 288.523438 160.054688 288.253906 C 160.167969 288.183594 160.28125 288.105469 160.390625 288.015625 L 160.558594 287.871094 C 160.601562 287.832031 160.6875 287.714844 160.8125 287.519531 C 160.902344 287.363281 160.957031 287.207031 160.984375 287.050781 C 161.023438 286.894531 161.003906 286.734375 160.929688 286.5625 C 160.847656 286.382812 160.6875 286.167969 160.449219 285.921875 L 158.753906 285.171875 " fill-opacity="1" fill-rule="nonzero"/><g clip-path="url(#64651c6847)"><g clip-path="url(#d4e7929c0f)"><g clip-path="url(#eb02fbb0f6)"><path fill="#27963c" d="M 256.585938 157.160156 L 256.59375 157.164062 C 256.617188 157.175781 256.644531 157.1875 256.671875 157.195312 L 257.480469 157.367188 C 257.730469 157.335938 257.878906 157.3125 257.925781 157.292969 C 258.023438 157.269531 258.117188 157.238281 258.210938 157.203125 C 258.445312 157.105469 258.582031 157.042969 258.625 157.011719 C 258.875 156.871094 259.054688 156.722656 259.164062 156.558594 C 259.203125 156.503906 259.234375 156.445312 259.261719 156.386719 L 259.296875 156.292969 C 259.316406 156.238281 259.332031 156.164062 259.347656 156.066406 C 259.355469 155.980469 259.355469 155.886719 259.351562 155.792969 C 259.355469 155.75 259.328125 155.597656 259.257812 155.332031 C 259.253906 155.28125 259.183594 155.109375 259.054688 154.8125 C 259.023438 154.757812 258.988281 154.707031 258.953125 154.660156 C 258.859375 154.546875 258.800781 154.484375 258.777344 154.46875 C 258.691406 154.394531 258.597656 154.328125 258.496094 154.277344 C 258.296875 154.179688 258.097656 154.132812 257.890625 154.136719 L 257.640625 154.144531 L 257.40625 154.1875 L 257.1875 154.261719 L 256.980469 154.371094 L 256.792969 154.511719 L 256.617188 154.683594 L 256.457031 154.886719 L 256.3125 155.125 C 256.265625 155.246094 256.226562 155.355469 256.191406 155.464844 C 256.164062 155.523438 256.128906 155.675781 256.085938 155.917969 C 256.074219 156.007812 256.070312 156.097656 256.070312 156.179688 C 256.085938 156.429688 256.144531 156.648438 256.242188 156.832031 C 256.277344 156.890625 256.316406 156.945312 256.359375 156.988281 L 256.425781 157.054688 C 256.472656 157.09375 256.527344 157.128906 256.585938 157.160156 " fill-opacity="1" fill-rule="nonzero"/></g></g></g><g clip-path="url(#f27a246f52)"><g clip-path="url(#63b6bfc38b)"><g clip-path="url(#45e7881539)"><path fill="#27963c" d="M 254.246094 153.027344 L 254.796875 153.082031 C 255.0625 153.097656 255.230469 153.082031 255.296875 153.035156 C 255.390625 152.953125 255.457031 152.878906 255.496094 152.808594 C 255.519531 152.769531 255.539062 152.726562 255.554688 152.683594 C 255.566406 152.664062 255.582031 152.59375 255.601562 152.472656 C 255.609375 152.390625 255.597656 152.308594 255.570312 152.222656 C 255.558594 152.179688 255.542969 152.136719 255.519531 152.09375 L 255.484375 152.027344 C 255.460938 151.980469 255.429688 151.9375 255.398438 151.890625 C 255.257812 151.707031 255.085938 151.601562 254.878906 151.566406 C 254.84375 151.5625 254.808594 151.5625 254.777344 151.566406 L 254.722656 151.574219 C 254.691406 151.578125 254.65625 151.585938 254.621094 151.597656 C 254.554688 151.621094 254.488281 151.65625 254.421875 151.703125 C 254.28125 151.796875 254.175781 151.9375 254.109375 152.121094 C 254.085938 152.183594 254.066406 152.253906 254.058594 152.328125 C 254.054688 152.367188 254.050781 152.40625 254.050781 152.449219 C 254.054688 152.566406 254.058594 152.625 254.0625 152.628906 C 254.082031 152.746094 254.144531 152.878906 254.246094 153.027344 " fill-opacity="1" fill-rule="nonzero"/></g></g></g><g clip-path="url(#805cedee96)"><g clip-path="url(#0f8403fd97)"><g clip-path="url(#5cde8480a4)"><path fill="#27963c" d="M 252.835938 145.714844 L 252.859375 145.695312 C 252.925781 145.640625 252.96875 145.605469 252.992188 145.59375 C 253.171875 145.488281 253.265625 145.429688 253.273438 145.421875 C 253.328125 145.378906 253.363281 145.34375 253.386719 145.320312 C 253.503906 145.183594 253.5625 145.046875 253.558594 144.910156 C 253.542969 144.792969 253.5 144.664062 253.421875 144.519531 L 253.386719 144.464844 C 253.363281 144.433594 253.339844 144.402344 253.3125 144.378906 C 253.289062 144.355469 253.261719 144.335938 253.230469 144.324219 L 253.199219 144.308594 C 253.179688 144.300781 253.15625 144.296875 253.132812 144.292969 C 253.089844 144.285156 253.042969 144.289062 252.992188 144.304688 C 252.933594 144.320312 252.886719 144.339844 252.855469 144.363281 C 252.816406 144.386719 252.78125 144.410156 252.75 144.433594 C 252.691406 144.488281 252.644531 144.546875 252.617188 144.613281 C 252.605469 144.628906 252.589844 144.683594 252.570312 144.78125 C 252.5625 144.820312 252.558594 144.859375 252.558594 144.898438 L 252.5625 144.949219 C 252.570312 144.984375 252.578125 145.019531 252.589844 145.050781 L 252.613281 145.101562 C 252.628906 145.128906 252.648438 145.160156 252.675781 145.1875 L 252.835938 145.714844 " fill-opacity="1" fill-rule="nonzero"/></g></g></g><g clip-path="url(#dc298755af)"><g clip-path="url(#e76dfbd9b6)"><g clip-path="url(#f8a4a47079)"><path fill="#27963c" d="M 245.347656 148.832031 L 245.355469 148.820312 C 245.378906 148.792969 245.421875 148.746094 245.484375 148.679688 C 245.628906 148.554688 245.738281 148.453125 245.8125 148.375 C 245.875 148.3125 245.914062 148.265625 245.933594 148.238281 C 245.960938 148.199219 245.980469 148.164062 246 148.125 C 246.007812 148.117188 246.019531 148.089844 246.035156 148.039062 C 246.046875 148 246.050781 147.957031 246.050781 147.917969 L 246.046875 147.859375 L 246.035156 147.800781 C 246.023438 147.761719 246.007812 147.726562 245.984375 147.6875 C 245.960938 147.648438 245.933594 147.609375 245.902344 147.574219 C 245.839844 147.515625 245.765625 147.476562 245.675781 147.457031 C 245.625 147.445312 245.570312 147.445312 245.515625 147.453125 C 245.488281 147.457031 245.460938 147.464844 245.429688 147.472656 L 245.378906 147.492188 C 245.28125 147.53125 245.191406 147.605469 245.117188 147.710938 C 245.09375 147.742188 245.070312 147.785156 245.039062 147.84375 C 245.023438 147.871094 245.011719 147.917969 245 147.976562 C 244.980469 148.082031 244.984375 148.1875 245.007812 148.296875 C 245.027344 148.390625 245.058594 148.46875 245.09375 148.523438 C 245.164062 148.632812 245.246094 148.734375 245.347656 148.832031 " fill-opacity="1" fill-rule="nonzero"/></g></g></g><g clip-path="url(#20bbee2f4f)"><g clip-path="url(#fb4e5c2dd6)"><g clip-path="url(#b038cc2813)"><path fill="#27963c" d="M 246.734375 153.378906 L 246.828125 153.367188 C 247.015625 153.339844 247.121094 153.324219 247.140625 153.316406 C 247.164062 153.3125 247.179688 153.304688 247.191406 153.300781 C 247.253906 153.269531 247.289062 153.25 247.296875 153.246094 C 247.355469 153.207031 247.402344 153.15625 247.441406 153.09375 C 247.460938 153.050781 247.46875 153.007812 247.464844 152.957031 C 247.457031 152.914062 247.445312 152.871094 247.429688 152.828125 C 247.398438 152.765625 247.375 152.71875 247.359375 152.699219 C 247.339844 152.667969 247.320312 152.636719 247.300781 152.609375 C 247.242188 152.550781 247.210938 152.515625 247.195312 152.507812 C 247.128906 152.460938 247.0625 152.421875 246.996094 152.402344 C 246.917969 152.375 246.839844 152.363281 246.757812 152.375 C 246.617188 152.394531 246.5 152.449219 246.410156 152.535156 C 246.386719 152.558594 246.371094 152.582031 246.351562 152.605469 C 246.335938 152.640625 246.316406 152.675781 246.304688 152.707031 C 246.277344 152.769531 246.265625 152.824219 246.261719 152.871094 C 246.261719 152.929688 246.269531 152.960938 246.273438 152.96875 C 246.304688 153.035156 246.339844 153.089844 246.382812 153.140625 C 246.390625 153.15625 246.429688 153.191406 246.496094 153.242188 L 246.542969 153.269531 L 246.734375 153.378906 " fill-opacity="1" fill-rule="nonzero"/></g></g></g><g clip-path="url(#9f7b817d33)"><g clip-path="url(#c75241dac5)"><g clip-path="url(#67ddd6c4e0)"><path fill="#27963c" d="M 242.042969 155.253906 L 242.09375 155.273438 C 242.210938 155.304688 242.292969 155.320312 242.339844 155.324219 C 242.417969 155.332031 242.460938 155.332031 242.476562 155.332031 C 242.5 155.328125 242.523438 155.324219 242.546875 155.320312 C 242.617188 155.300781 242.683594 155.265625 242.738281 155.214844 L 242.769531 155.183594 L 242.800781 155.132812 L 242.824219 155.078125 C 242.851562 154.964844 242.804688 154.824219 242.679688 154.660156 L 242.609375 154.574219 C 242.597656 154.5625 242.570312 154.539062 242.527344 154.507812 C 242.449219 154.460938 242.363281 154.421875 242.265625 154.386719 C 242.148438 154.351562 242.050781 154.332031 241.972656 154.328125 C 241.957031 154.324219 241.925781 154.324219 241.878906 154.328125 L 241.804688 154.347656 C 241.710938 154.378906 241.636719 154.425781 241.578125 154.492188 L 241.542969 154.542969 C 241.519531 154.582031 241.5 154.621094 241.484375 154.667969 L 241.46875 154.742188 L 242.042969 155.253906 " fill-opacity="1" fill-rule="nonzero"/></g></g></g><g clip-path="url(#3c312c8f85)"><g clip-path="url(#23603c31cc)"><g clip-path="url(#a961dbe6f0)"><path fill="#27963c" d="M 246.480469 163.34375 L 246.597656 163.398438 C 246.945312 163.53125 247.289062 163.492188 247.625 163.28125 C 247.691406 163.238281 247.78125 163.152344 247.902344 163.023438 C 248.03125 162.851562 248.128906 162.683594 248.199219 162.519531 C 248.296875 162.46875 248.382812 162.394531 248.445312 162.300781 C 248.5 162.222656 248.53125 162.132812 248.546875 162.035156 C 248.554688 161.984375 248.554688 161.929688 248.554688 161.875 L 248.546875 161.789062 C 248.539062 161.730469 248.527344 161.671875 248.511719 161.605469 C 248.492188 161.550781 248.46875 161.496094 248.441406 161.449219 L 248.394531 161.375 C 248.363281 161.332031 248.328125 161.289062 248.285156 161.25 C 248.210938 161.175781 248.109375 161.113281 247.988281 161.0625 C 247.722656 160.96875 247.472656 160.90625 247.238281 160.871094 C 247.035156 160.84375 246.84375 160.839844 246.664062 160.863281 C 246.269531 160.914062 245.996094 161.054688 245.851562 161.277344 C 245.75 161.441406 245.6875 161.613281 245.664062 161.796875 C 245.648438 161.890625 245.648438 161.988281 245.652344 162.085938 C 245.660156 162.183594 245.675781 162.285156 245.699219 162.390625 L 245.742188 162.550781 C 245.863281 162.890625 246.109375 163.15625 246.480469 163.34375 " fill-opacity="1" fill-rule="nonzero"/></g></g></g><g clip-path="url(#29691e1121)"><g clip-path="url(#52660763f4)"><g clip-path="url(#c4655cd3b6)"><path fill="#27963c" d="M 256.710938 146.507812 L 256.921875 146.550781 C 257.328125 146.625 257.640625 146.605469 257.863281 146.492188 L 257.96875 146.425781 L 258.058594 146.347656 L 258.144531 146.183594 C 258.199219 146.078125 258.234375 145.972656 258.253906 145.871094 L 258.273438 145.71875 L 258.269531 145.570312 L 258.242188 145.425781 L 258.191406 145.289062 L 258.113281 145.152344 L 258.015625 145.019531 C 257.972656 144.957031 257.882812 144.890625 257.742188 144.816406 C 257.574219 144.738281 257.410156 144.683594 257.25 144.65625 C 257.207031 144.648438 257.164062 144.640625 257.113281 144.640625 C 257.066406 144.636719 257.015625 144.640625 256.960938 144.644531 L 256.878906 144.65625 C 256.769531 144.671875 256.644531 144.699219 256.507812 144.742188 L 256.398438 144.796875 L 256.300781 144.867188 L 256.21875 144.957031 L 256.152344 145.058594 L 256.101562 145.183594 C 256.046875 145.355469 256.027344 145.574219 256.050781 145.839844 L 256.710938 146.507812 " fill-opacity="1" fill-rule="nonzero"/></g></g></g><g clip-path="url(#5759cdefdc)"><g clip-path="url(#8433b2c1dd)"><g clip-path="url(#da21831ff6)"><path fill="#27963c" d="M 245.703125 140.109375 L 245.953125 140.214844 C 246.105469 140.273438 246.25 140.320312 246.382812 140.355469 L 246.578125 140.398438 L 246.757812 140.417969 L 246.921875 140.421875 L 247.074219 140.40625 L 247.210938 140.367188 L 247.332031 140.3125 L 247.4375 140.234375 C 247.519531 140.148438 247.574219 140.058594 247.609375 139.964844 C 247.625 139.914062 247.632812 139.867188 247.640625 139.816406 C 247.644531 139.765625 247.640625 139.710938 247.636719 139.65625 L 247.621094 139.574219 C 247.605469 139.527344 247.585938 139.484375 247.5625 139.441406 L 247.527344 139.378906 C 247.5 139.339844 247.46875 139.300781 247.429688 139.265625 C 247.371094 139.199219 247.269531 139.132812 247.121094 139.058594 L 246.960938 139 L 246.808594 138.960938 L 246.667969 138.9375 L 246.53125 138.925781 L 246.402344 138.933594 L 246.28125 138.953125 L 246.167969 138.992188 L 246.0625 139.046875 L 245.921875 139.148438 C 245.867188 139.191406 245.816406 139.25 245.773438 139.320312 C 245.734375 139.375 245.695312 139.476562 245.652344 139.628906 C 245.621094 139.773438 245.636719 139.933594 245.703125 140.109375 " fill-opacity="1" fill-rule="nonzero"/></g></g></g><g clip-path="url(#ee71339fdc)"><g clip-path="url(#220835813e)"><g clip-path="url(#964292b332)"><path fill="#27963c" d="M 248.742188 147.835938 L 249.34375 147.851562 C 249.417969 147.832031 249.476562 147.8125 249.515625 147.792969 C 249.558594 147.761719 249.597656 147.722656 249.636719 147.671875 C 249.683594 147.605469 249.703125 147.5625 249.703125 147.546875 C 249.710938 147.523438 249.714844 147.496094 249.722656 147.460938 C 249.722656 147.429688 249.71875 147.398438 249.714844 147.371094 C 249.707031 147.308594 249.691406 147.253906 249.667969 147.203125 C 249.652344 147.175781 249.636719 147.148438 249.621094 147.125 C 249.605469 147.101562 249.582031 147.078125 249.554688 147.050781 C 249.460938 146.976562 249.351562 146.941406 249.226562 146.941406 C 249.121094 146.941406 249.019531 146.972656 248.925781 147.027344 C 248.832031 147.085938 248.753906 147.167969 248.691406 147.277344 C 248.628906 147.390625 248.601562 147.503906 248.613281 147.625 C 248.617188 147.652344 248.621094 147.683594 248.628906 147.714844 L 248.742188 147.835938 " fill-opacity="1" fill-rule="nonzero"/></g></g></g><g clip-path="url(#424fa8e75c)"><g clip-path="url(#0e8798ef24)"><g clip-path="url(#300e090fe6)"><path fill="#27963c" d="M 239.28125 149.429688 L 239.433594 149.453125 C 239.730469 149.496094 240.003906 149.492188 240.253906 149.441406 C 240.542969 149.371094 240.738281 149.289062 240.847656 149.199219 C 241.261719 148.882812 241.507812 148.507812 241.585938 148.082031 C 241.652344 147.597656 241.542969 147.167969 241.257812 146.789062 C 240.921875 146.378906 240.472656 146.121094 239.914062 146.019531 C 239.5 145.960938 239.097656 146.054688 238.710938 146.308594 C 238.636719 146.363281 238.570312 146.421875 238.503906 146.492188 C 238.339844 146.679688 238.246094 146.796875 238.222656 146.855469 C 238.011719 147.203125 237.890625 147.46875 237.855469 147.65625 C 237.832031 147.777344 237.832031 147.917969 237.851562 148.078125 C 237.847656 148.113281 237.871094 148.246094 237.921875 148.476562 L 239.28125 149.429688 " fill-opacity="1" fill-rule="nonzero"/></g></g></g><g clip-path="url(#74fd476455)"><g clip-path="url(#49e79066ab)"><g clip-path="url(#c7171b8695)"><path fill="#27963c" d="M 266.789062 154.660156 L 267.789062 154.75 C 267.945312 154.71875 268.082031 154.675781 268.207031 154.625 L 268.375 154.542969 L 268.515625 154.445312 L 268.632812 154.332031 L 268.722656 154.203125 L 268.785156 154.0625 L 268.820312 153.910156 L 268.828125 153.738281 C 268.824219 153.628906 268.796875 153.519531 268.746094 153.414062 C 268.722656 153.359375 268.691406 153.304688 268.65625 153.25 C 268.644531 153.222656 268.578125 153.140625 268.457031 153.003906 C 268.261719 152.816406 268.003906 152.699219 267.691406 152.65625 C 267.554688 152.648438 267.425781 152.65625 267.304688 152.679688 L 267.132812 152.722656 L 266.972656 152.785156 L 266.828125 152.867188 L 266.695312 152.972656 L 266.578125 153.09375 C 266.5 153.183594 266.4375 153.289062 266.378906 153.40625 L 266.320312 153.554688 L 266.289062 153.703125 L 266.285156 153.847656 L 266.304688 153.988281 L 266.351562 154.128906 C 266.425781 154.3125 266.574219 154.488281 266.789062 154.660156 " fill-opacity="1" fill-rule="nonzero"/></g></g></g><g clip-path="url(#3a46540988)"><g clip-path="url(#8783c8eae5)"><g clip-path="url(#4cd0a8bebd)"><path fill="#27963c" d="M 260.125 150 L 260.191406 150 C 260.421875 150 260.628906 149.914062 260.804688 149.738281 C 260.9375 149.59375 261 149.410156 260.988281 149.191406 L 260.976562 149.089844 C 260.960938 149.027344 260.9375 148.960938 260.902344 148.898438 C 260.867188 148.832031 260.828125 148.769531 260.773438 148.707031 C 260.6875 148.617188 260.582031 148.539062 260.449219 148.46875 C 260.347656 148.421875 260.285156 148.402344 260.265625 148.402344 C 260.226562 148.394531 260.183594 148.386719 260.144531 148.386719 C 260.0625 148.382812 259.984375 148.398438 259.902344 148.425781 L 259.808594 148.480469 L 259.722656 148.546875 L 259.65625 148.621094 L 259.601562 148.707031 L 259.558594 148.808594 L 259.53125 148.914062 L 259.519531 149.035156 C 259.515625 149.117188 259.523438 149.207031 259.535156 149.304688 L 260.125 150 " fill-opacity="1" fill-rule="nonzero"/></g></g></g><g clip-path="url(#1b774eedfc)"><g clip-path="url(#caa9abf29b)"><g clip-path="url(#5ec2e639c4)"><path fill="#27963c" d="M 254.753906 163.371094 L 254.929688 163.355469 C 255.15625 163.328125 255.351562 163.277344 255.511719 163.207031 L 255.628906 163.148438 C 255.699219 163.105469 255.765625 163.054688 255.820312 163 L 255.902344 162.917969 C 255.949219 162.84375 255.984375 162.773438 256.011719 162.699219 L 256.042969 162.59375 C 256.058594 162.519531 256.0625 162.449219 256.054688 162.375 L 256.035156 162.269531 C 256.019531 162.195312 255.988281 162.125 255.949219 162.050781 C 255.898438 161.953125 255.804688 161.847656 255.667969 161.738281 C 255.429688 161.558594 255.164062 161.480469 254.871094 161.507812 C 254.796875 161.511719 254.722656 161.523438 254.644531 161.539062 L 254.523438 161.570312 C 254.492188 161.578125 254.421875 161.617188 254.308594 161.683594 C 254.226562 161.738281 254.15625 161.804688 254.105469 161.875 C 254.046875 161.945312 254.015625 162.03125 254.011719 162.132812 C 254.007812 162.242188 254.035156 162.390625 254.09375 162.574219 L 254.753906 163.371094 " fill-opacity="1" fill-rule="nonzero"/></g></g></g></svg>